<mxfile host="65bd71144e">
    <diagram id="Z6C1K-KtgszrAE8Lc3rY" name="Page-1">
        <mxGraphModel dx="1284" dy="1650" grid="1" gridSize="10" guides="1" tooltips="1" connect="1" arrows="1" fold="1" page="1" pageScale="1" pageWidth="850" pageHeight="1100" math="0" shadow="0">
            <root>
                <mxCell id="0"/>
                <mxCell id="1" parent="0"/>
                <mxCell id="61" value="" style="group" parent="1" vertex="1" connectable="0">
                    <mxGeometry x="-360" y="820" width="140" height="164" as="geometry"/>
                </mxCell>
                <mxCell id="55" value="" style="edgeStyle=none;html=1;" parent="61" edge="1">
                    <mxGeometry relative="1" as="geometry">
                        <mxPoint x="100" y="130" as="sourcePoint"/>
                        <mxPoint x="100" y="130" as="targetPoint"/>
                    </mxGeometry>
                </mxCell>
                <mxCell id="56" value="store" style="swimlane;fontStyle=0;childLayout=stackLayout;horizontal=1;startSize=26;fillColor=none;horizontalStack=0;resizeParent=1;resizeParentMax=0;resizeLast=0;collapsible=1;marginBottom=0;html=1;" parent="61" vertex="1">
                    <mxGeometry width="140" height="104" as="geometry"/>
                </mxCell>
                <mxCell id="57" value="id&amp;nbsp;&amp;nbsp;&lt;span style=&quot;white-space: pre;&quot;&gt;&#9;&lt;/span&gt;&lt;span style=&quot;white-space: pre;&quot;&gt;&#9;&lt;/span&gt;uuid" style="text;strokeColor=none;fillColor=none;align=left;verticalAlign=top;spacingLeft=4;spacingRight=4;overflow=hidden;rotatable=0;points=[[0,0.5],[1,0.5]];portConstraint=eastwest;whiteSpace=wrap;html=1;" parent="56" vertex="1">
                    <mxGeometry y="26" width="140" height="26" as="geometry"/>
                </mxCell>
                <mxCell id="58" value="name&lt;span style=&quot;white-space: pre;&quot;&gt;&#9;&lt;/span&gt;string" style="text;strokeColor=none;fillColor=none;align=left;verticalAlign=top;spacingLeft=4;spacingRight=4;overflow=hidden;rotatable=0;points=[[0,0.5],[1,0.5]];portConstraint=eastwest;whiteSpace=wrap;html=1;" parent="56" vertex="1">
                    <mxGeometry y="52" width="140" height="26" as="geometry"/>
                </mxCell>
                <mxCell id="59" value="userId&amp;nbsp; &amp;nbsp; &amp;nbsp; uuid" style="text;strokeColor=none;fillColor=none;align=left;verticalAlign=top;spacingLeft=4;spacingRight=4;overflow=hidden;rotatable=0;points=[[0,0.5],[1,0.5]];portConstraint=eastwest;whiteSpace=wrap;html=1;" parent="56" vertex="1">
                    <mxGeometry y="78" width="140" height="26" as="geometry"/>
                </mxCell>
                <mxCell id="60" value="create_at&lt;span style=&quot;&quot;&gt;&#9;&lt;span style=&quot;white-space: pre;&quot;&gt;&#9;&lt;/span&gt;&lt;/span&gt;timestamp&lt;br&gt;update_at&lt;span style=&quot;&quot;&gt;&amp;nbsp;&lt;span style=&quot;white-space: pre;&quot;&gt;&#9;&lt;/span&gt;&lt;/span&gt;timestamp&lt;br&gt;" style="whiteSpace=wrap;html=1;" parent="61" vertex="1">
                    <mxGeometry y="104" width="140" height="60" as="geometry"/>
                </mxCell>
                <mxCell id="81" value="" style="group" parent="1" vertex="1" connectable="0">
                    <mxGeometry x="-70" y="10" width="140" height="224" as="geometry"/>
                </mxCell>
                <mxCell id="62" value="" style="group" parent="81" vertex="1" connectable="0">
                    <mxGeometry width="140" height="224" as="geometry"/>
                </mxCell>
                <mxCell id="63" value="" style="edgeStyle=none;html=1;" parent="62" edge="1">
                    <mxGeometry relative="1" as="geometry">
                        <mxPoint x="100" y="130" as="sourcePoint"/>
                        <mxPoint x="100" y="130" as="targetPoint"/>
                    </mxGeometry>
                </mxCell>
                <mxCell id="64" value="Category" style="swimlane;fontStyle=0;childLayout=stackLayout;horizontal=1;startSize=26;fillColor=none;horizontalStack=0;resizeParent=1;resizeParentMax=0;resizeLast=0;collapsible=1;marginBottom=0;html=1;" parent="62" vertex="1">
                    <mxGeometry width="140" height="104" as="geometry"/>
                </mxCell>
                <mxCell id="65" value="id&amp;nbsp;&amp;nbsp;&lt;span style=&quot;white-space: pre;&quot;&gt;&#9;&lt;/span&gt;&lt;span style=&quot;white-space: pre;&quot;&gt;&#9;&lt;/span&gt;uuid" style="text;strokeColor=none;fillColor=none;align=left;verticalAlign=top;spacingLeft=4;spacingRight=4;overflow=hidden;rotatable=0;points=[[0,0.5],[1,0.5]];portConstraint=eastwest;whiteSpace=wrap;html=1;" parent="64" vertex="1">
                    <mxGeometry y="26" width="140" height="26" as="geometry"/>
                </mxCell>
                <mxCell id="66" value="name&lt;span style=&quot;white-space: pre;&quot;&gt;&#9;&lt;/span&gt;string" style="text;strokeColor=none;fillColor=none;align=left;verticalAlign=top;spacingLeft=4;spacingRight=4;overflow=hidden;rotatable=0;points=[[0,0.5],[1,0.5]];portConstraint=eastwest;whiteSpace=wrap;html=1;" parent="64" vertex="1">
                    <mxGeometry y="52" width="140" height="26" as="geometry"/>
                </mxCell>
                <mxCell id="67" value="storeId&lt;span style=&quot;white-space: pre;&quot;&gt;&#9;&lt;/span&gt;uuid" style="text;strokeColor=none;fillColor=none;align=left;verticalAlign=top;spacingLeft=4;spacingRight=4;overflow=hidden;rotatable=0;points=[[0,0.5],[1,0.5]];portConstraint=eastwest;whiteSpace=wrap;html=1;" parent="64" vertex="1">
                    <mxGeometry y="78" width="140" height="26" as="geometry"/>
                </mxCell>
                <mxCell id="68" value="create_at&lt;span style=&quot;&quot;&gt;&#9;&lt;span style=&quot;white-space: pre;&quot;&gt;&#9;&lt;/span&gt;&lt;/span&gt;timestamp&lt;br&gt;update_at&lt;span style=&quot;&quot;&gt;&amp;nbsp;&lt;span style=&quot;white-space: pre;&quot;&gt;&#9;&lt;/span&gt;&lt;/span&gt;timestamp&lt;br&gt;" style="whiteSpace=wrap;html=1;" parent="62" vertex="1">
                    <mxGeometry y="164" width="140" height="60" as="geometry"/>
                </mxCell>
                <mxCell id="72" value="billboard&amp;nbsp;&lt;span style=&quot;white-space: pre;&quot;&gt;&#9;&lt;/span&gt;&lt;span style=&quot;white-space: pre;&quot;&gt;&#9;&lt;/span&gt;uuid" style="whiteSpace=wrap;html=1;" parent="62" vertex="1">
                    <mxGeometry y="104" width="140" height="60" as="geometry"/>
                </mxCell>
                <mxCell id="73" value="" style="edgeStyle=none;html=1;" parent="62" source="68" target="72" edge="1">
                    <mxGeometry relative="1" as="geometry"/>
                </mxCell>
                <mxCell id="89" value="" style="group" parent="1" vertex="1" connectable="0">
                    <mxGeometry x="-400" width="140" height="224" as="geometry"/>
                </mxCell>
                <mxCell id="90" value="" style="group" parent="89" vertex="1" connectable="0">
                    <mxGeometry width="140" height="224" as="geometry"/>
                </mxCell>
                <mxCell id="91" value="" style="edgeStyle=none;html=1;" parent="90" edge="1">
                    <mxGeometry relative="1" as="geometry">
                        <mxPoint x="100" y="130" as="sourcePoint"/>
                        <mxPoint x="100" y="130" as="targetPoint"/>
                    </mxGeometry>
                </mxCell>
                <mxCell id="92" value="BillBoard" style="swimlane;fontStyle=0;childLayout=stackLayout;horizontal=1;startSize=26;fillColor=none;horizontalStack=0;resizeParent=1;resizeParentMax=0;resizeLast=0;collapsible=1;marginBottom=0;html=1;" parent="90" vertex="1">
                    <mxGeometry width="140" height="104" as="geometry"/>
                </mxCell>
                <mxCell id="93" value="id&amp;nbsp;&amp;nbsp;&lt;span style=&quot;white-space: pre;&quot;&gt;&#9;&lt;/span&gt;&lt;span style=&quot;white-space: pre;&quot;&gt;&#9;&lt;/span&gt;uuid" style="text;strokeColor=none;fillColor=none;align=left;verticalAlign=top;spacingLeft=4;spacingRight=4;overflow=hidden;rotatable=0;points=[[0,0.5],[1,0.5]];portConstraint=eastwest;whiteSpace=wrap;html=1;" parent="92" vertex="1">
                    <mxGeometry y="26" width="140" height="26" as="geometry"/>
                </mxCell>
                <mxCell id="94" value="label&lt;span style=&quot;white-space: pre;&quot;&gt;&#9;&lt;/span&gt;string" style="text;strokeColor=none;fillColor=none;align=left;verticalAlign=top;spacingLeft=4;spacingRight=4;overflow=hidden;rotatable=0;points=[[0,0.5],[1,0.5]];portConstraint=eastwest;whiteSpace=wrap;html=1;" parent="92" vertex="1">
                    <mxGeometry y="52" width="140" height="26" as="geometry"/>
                </mxCell>
                <mxCell id="95" value="storeId&lt;span style=&quot;white-space: pre;&quot;&gt;&#9;&lt;/span&gt;uuid" style="text;strokeColor=none;fillColor=none;align=left;verticalAlign=top;spacingLeft=4;spacingRight=4;overflow=hidden;rotatable=0;points=[[0,0.5],[1,0.5]];portConstraint=eastwest;whiteSpace=wrap;html=1;" parent="92" vertex="1">
                    <mxGeometry y="78" width="140" height="26" as="geometry"/>
                </mxCell>
                <mxCell id="97" value="&amp;nbsp; imageUrl&amp;nbsp;&lt;span style=&quot;white-space: pre;&quot;&gt;&#9;&lt;/span&gt;&lt;span style=&quot;white-space: pre;&quot;&gt;&#9;&lt;/span&gt;string&lt;span style=&quot;white-space: pre;&quot;&gt;&#9;&lt;/span&gt;&lt;span style=&quot;white-space: pre;&quot;&gt;&#9;&lt;/span&gt;" style="whiteSpace=wrap;html=1;" parent="90" vertex="1">
                    <mxGeometry y="104" width="140" height="60" as="geometry"/>
                </mxCell>
                <mxCell id="98" value="" style="edgeStyle=none;html=1;" parent="90" target="97" edge="1">
                    <mxGeometry relative="1" as="geometry">
                        <mxPoint x="70" y="104" as="sourcePoint"/>
                    </mxGeometry>
                </mxCell>
                <mxCell id="109" value="create_at&lt;span style=&quot;&quot;&gt;&#9;&lt;span style=&quot;white-space: pre;&quot;&gt;&#9;&lt;/span&gt;&lt;/span&gt;timestamp&lt;br&gt;update_at&lt;span style=&quot;&quot;&gt;&amp;nbsp;&lt;span style=&quot;white-space: pre;&quot;&gt;&#9;&lt;/span&gt;&lt;/span&gt;timestamp&lt;br&gt;" style="whiteSpace=wrap;html=1;" parent="90" vertex="1">
                    <mxGeometry y="164" width="140" height="60" as="geometry"/>
                </mxCell>
                <mxCell id="99" value="" style="group" parent="1" vertex="1" connectable="0">
                    <mxGeometry x="-410" y="480" width="140" height="224" as="geometry"/>
                </mxCell>
                <mxCell id="100" value="" style="group" parent="99" vertex="1" connectable="0">
                    <mxGeometry width="140" height="164" as="geometry"/>
                </mxCell>
                <mxCell id="101" value="" style="edgeStyle=none;html=1;" parent="100" edge="1">
                    <mxGeometry relative="1" as="geometry">
                        <mxPoint x="100" y="130" as="sourcePoint"/>
                        <mxPoint x="100" y="130" as="targetPoint"/>
                    </mxGeometry>
                </mxCell>
                <mxCell id="102" value="brand" style="swimlane;fontStyle=0;childLayout=stackLayout;horizontal=1;startSize=26;fillColor=none;horizontalStack=0;resizeParent=1;resizeParentMax=0;resizeLast=0;collapsible=1;marginBottom=0;html=1;" parent="100" vertex="1">
                    <mxGeometry width="140" height="104" as="geometry"/>
                </mxCell>
                <mxCell id="103" value="id&amp;nbsp;&amp;nbsp;&lt;span style=&quot;white-space: pre;&quot;&gt;&#9;&lt;/span&gt;&lt;span style=&quot;white-space: pre;&quot;&gt;&#9;&lt;/span&gt;uuid" style="text;strokeColor=none;fillColor=none;align=left;verticalAlign=top;spacingLeft=4;spacingRight=4;overflow=hidden;rotatable=0;points=[[0,0.5],[1,0.5]];portConstraint=eastwest;whiteSpace=wrap;html=1;" parent="102" vertex="1">
                    <mxGeometry y="26" width="140" height="26" as="geometry"/>
                </mxCell>
                <mxCell id="104" value="name&lt;span style=&quot;white-space: pre;&quot;&gt;&#9;&lt;/span&gt;string" style="text;strokeColor=none;fillColor=none;align=left;verticalAlign=top;spacingLeft=4;spacingRight=4;overflow=hidden;rotatable=0;points=[[0,0.5],[1,0.5]];portConstraint=eastwest;whiteSpace=wrap;html=1;" parent="102" vertex="1">
                    <mxGeometry y="52" width="140" height="26" as="geometry"/>
                </mxCell>
                <mxCell id="105" value="storeId&lt;span style=&quot;white-space: pre;&quot;&gt;&#9;&lt;/span&gt;uuid" style="text;strokeColor=none;fillColor=none;align=left;verticalAlign=top;spacingLeft=4;spacingRight=4;overflow=hidden;rotatable=0;points=[[0,0.5],[1,0.5]];portConstraint=eastwest;whiteSpace=wrap;html=1;" parent="102" vertex="1">
                    <mxGeometry y="78" width="140" height="26" as="geometry"/>
                </mxCell>
                <mxCell id="106" value="create_at&lt;span style=&quot;&quot;&gt;&#9;&lt;span style=&quot;white-space: pre;&quot;&gt;&#9;&lt;/span&gt;&lt;/span&gt;timestamp&lt;br&gt;update_at&lt;span style=&quot;&quot;&gt;&amp;nbsp;&lt;span style=&quot;white-space: pre;&quot;&gt;&#9;&lt;/span&gt;&lt;/span&gt;timestamp&lt;br&gt;" style="whiteSpace=wrap;html=1;" parent="100" vertex="1">
                    <mxGeometry y="104" width="140" height="60" as="geometry"/>
                </mxCell>
                <mxCell id="108" value="" style="edgeStyle=none;html=1;" parent="99" source="106" edge="1">
                    <mxGeometry relative="1" as="geometry">
                        <mxPoint x="70" y="164" as="targetPoint"/>
                    </mxGeometry>
                </mxCell>
                <mxCell id="110" value="" style="group" parent="1" vertex="1" connectable="0">
                    <mxGeometry x="-80" y="480" width="140" height="310" as="geometry"/>
                </mxCell>
                <mxCell id="111" value="" style="group" parent="110" vertex="1" connectable="0">
                    <mxGeometry width="140" height="310" as="geometry"/>
                </mxCell>
                <mxCell id="112" value="" style="edgeStyle=none;html=1;" parent="111" edge="1">
                    <mxGeometry relative="1" as="geometry">
                        <mxPoint x="100" y="179.9107142857143" as="sourcePoint"/>
                        <mxPoint x="100" y="179.9107142857143" as="targetPoint"/>
                    </mxGeometry>
                </mxCell>
                <mxCell id="113" value="product" style="swimlane;fontStyle=0;childLayout=stackLayout;horizontal=1;startSize=26;fillColor=none;horizontalStack=0;resizeParent=1;resizeParentMax=0;resizeLast=0;collapsible=1;marginBottom=0;html=1;" parent="111" vertex="1">
                    <mxGeometry width="140" height="133.94642857142858" as="geometry"/>
                </mxCell>
                <mxCell id="114" value="id&amp;nbsp;&amp;nbsp;&lt;span style=&quot;white-space: pre;&quot;&gt;&#9;&lt;/span&gt;&lt;span style=&quot;white-space: pre;&quot;&gt;&#9;&lt;/span&gt;uuid" style="text;strokeColor=none;fillColor=none;align=left;verticalAlign=top;spacingLeft=4;spacingRight=4;overflow=hidden;rotatable=0;points=[[0,0.5],[1,0.5]];portConstraint=eastwest;whiteSpace=wrap;html=1;" parent="113" vertex="1">
                    <mxGeometry y="26" width="140" height="35.98214285714286" as="geometry"/>
                </mxCell>
                <mxCell id="115" value="name&lt;span style=&quot;white-space: pre;&quot;&gt;&#9;&lt;/span&gt;string" style="text;strokeColor=none;fillColor=none;align=left;verticalAlign=top;spacingLeft=4;spacingRight=4;overflow=hidden;rotatable=0;points=[[0,0.5],[1,0.5]];portConstraint=eastwest;whiteSpace=wrap;html=1;" parent="113" vertex="1">
                    <mxGeometry y="61.98214285714286" width="140" height="35.98214285714286" as="geometry"/>
                </mxCell>
                <mxCell id="116" value="storeId&lt;span style=&quot;white-space: pre;&quot;&gt;&#9;&lt;/span&gt;uuid" style="text;strokeColor=none;fillColor=none;align=left;verticalAlign=top;spacingLeft=4;spacingRight=4;overflow=hidden;rotatable=0;points=[[0,0.5],[1,0.5]];portConstraint=eastwest;whiteSpace=wrap;html=1;" parent="113" vertex="1">
                    <mxGeometry y="97.96428571428572" width="140" height="35.98214285714286" as="geometry"/>
                </mxCell>
                <mxCell id="117" value="create_at&lt;span style=&quot;&quot;&gt;&#9;&lt;span style=&quot;white-space: pre;&quot;&gt;&#9;&lt;/span&gt;&lt;/span&gt;timestamp&lt;br&gt;update_at&lt;span style=&quot;&quot;&gt;&amp;nbsp;&lt;span style=&quot;white-space: pre;&quot;&gt;&#9;&lt;/span&gt;&lt;/span&gt;timestamp&lt;br&gt;" style="whiteSpace=wrap;html=1;" parent="111" vertex="1">
                    <mxGeometry y="226.96428571428572" width="140" height="83.03571428571429" as="geometry"/>
                </mxCell>
                <mxCell id="118" value="brandId&lt;span style=&quot;white-space: pre;&quot;&gt;&#9;&lt;/span&gt;&lt;span style=&quot;white-space: pre;&quot;&gt;&#9;&lt;/span&gt;uuid&lt;br&gt;&lt;br&gt;categoryId&amp;nbsp;&lt;span style=&quot;white-space: pre;&quot;&gt;&#9;&lt;/span&gt;uuid&lt;br&gt;description&lt;span style=&quot;white-space: pre;&quot;&gt;&#9;&lt;/span&gt;string&lt;br&gt;feature&lt;span style=&quot;white-space: pre;&quot;&gt;&#9;&lt;/span&gt;boolen&lt;br&gt;archived&amp;nbsp;&lt;span style=&quot;white-space: pre;&quot;&gt;&#9;&lt;/span&gt;&lt;span style=&quot;white-space: pre;&quot;&gt;&#9;&lt;/span&gt;boolen" style="whiteSpace=wrap;html=1;" parent="111" vertex="1">
                    <mxGeometry y="130" width="140" height="96.96" as="geometry"/>
                </mxCell>
                <mxCell id="119" value="" style="edgeStyle=none;html=1;" parent="111" source="117" target="118" edge="1">
                    <mxGeometry relative="1" as="geometry"/>
                </mxCell>
                <mxCell id="121" value="" style="group" parent="1" vertex="1" connectable="0">
                    <mxGeometry x="370" y="550" width="140" height="230" as="geometry"/>
                </mxCell>
                <mxCell id="122" value="" style="group" parent="121" vertex="1" connectable="0">
                    <mxGeometry width="140" height="230" as="geometry"/>
                </mxCell>
                <mxCell id="123" value="" style="edgeStyle=none;html=1;" parent="122" edge="1">
                    <mxGeometry relative="1" as="geometry">
                        <mxPoint x="100" y="130" as="sourcePoint"/>
                        <mxPoint x="100" y="130" as="targetPoint"/>
                    </mxGeometry>
                </mxCell>
                <mxCell id="124" value="ProductVariant&amp;nbsp;" style="swimlane;fontStyle=0;childLayout=stackLayout;horizontal=1;startSize=26;fillColor=none;horizontalStack=0;resizeParent=1;resizeParentMax=0;resizeLast=0;collapsible=1;marginBottom=0;html=1;" parent="122" vertex="1">
                    <mxGeometry width="140" height="104" as="geometry"/>
                </mxCell>
                <mxCell id="125" value="id&amp;nbsp;&amp;nbsp;&lt;span style=&quot;white-space: pre;&quot;&gt;&#9;&lt;/span&gt;&lt;span style=&quot;white-space: pre;&quot;&gt;&#9;&lt;/span&gt;uuid" style="text;strokeColor=none;fillColor=none;align=left;verticalAlign=top;spacingLeft=4;spacingRight=4;overflow=hidden;rotatable=0;points=[[0,0.5],[1,0.5]];portConstraint=eastwest;whiteSpace=wrap;html=1;" parent="124" vertex="1">
                    <mxGeometry y="26" width="140" height="26" as="geometry"/>
                </mxCell>
                <mxCell id="126" value="name&lt;span style=&quot;white-space: pre;&quot;&gt;&#9;&lt;/span&gt;string" style="text;strokeColor=none;fillColor=none;align=left;verticalAlign=top;spacingLeft=4;spacingRight=4;overflow=hidden;rotatable=0;points=[[0,0.5],[1,0.5]];portConstraint=eastwest;whiteSpace=wrap;html=1;" parent="124" vertex="1">
                    <mxGeometry y="52" width="140" height="26" as="geometry"/>
                </mxCell>
                <mxCell id="127" value="storeId&lt;span style=&quot;white-space: pre;&quot;&gt;&#9;&lt;/span&gt;uuid" style="text;strokeColor=none;fillColor=none;align=left;verticalAlign=top;spacingLeft=4;spacingRight=4;overflow=hidden;rotatable=0;points=[[0,0.5],[1,0.5]];portConstraint=eastwest;whiteSpace=wrap;html=1;" parent="124" vertex="1">
                    <mxGeometry y="78" width="140" height="26" as="geometry"/>
                </mxCell>
                <mxCell id="129" value="sizeId&amp;nbsp;&lt;span style=&quot;white-space: pre;&quot;&gt;&#9;&lt;/span&gt;uuid&lt;br&gt;storageId&lt;span style=&quot;white-space: pre;&quot;&gt;&#9;&lt;/span&gt;&lt;span style=&quot;white-space: pre;&quot;&gt;&#9;&lt;/span&gt;uuid&lt;br&gt;amount&lt;span style=&quot;white-space: pre;&quot;&gt;&#9;&lt;span style=&quot;white-space: pre;&quot;&gt;&#9;&lt;/span&gt;number&lt;br&gt;colorId&lt;span style=&quot;white-space: pre;&quot;&gt;&#9;&lt;/span&gt;uuid&lt;br&gt;&lt;/span&gt;productId&amp;nbsp;&lt;span style=&quot;white-space: pre;&quot;&gt;&#9;&lt;/span&gt;uuid&lt;br&gt;feature&lt;span style=&quot;&quot;&gt;&#9;&lt;/span&gt;boolen&lt;br&gt;archived&amp;nbsp;&lt;span style=&quot;&quot;&gt;&#9;&lt;/span&gt;&lt;span style=&quot;&quot;&gt;&#9;&lt;/span&gt;boolen&lt;br&gt;price&amp;nbsp;&lt;span style=&quot;white-space: pre;&quot;&gt;&#9;&lt;/span&gt;number" style="whiteSpace=wrap;html=1;" parent="122" vertex="1">
                    <mxGeometry y="104" width="140" height="126" as="geometry"/>
                </mxCell>
                <mxCell id="141" value="" style="group" parent="1" vertex="1" connectable="0">
                    <mxGeometry x="355" y="-40" width="140" height="224" as="geometry"/>
                </mxCell>
                <mxCell id="142" value="" style="group" parent="141" vertex="1" connectable="0">
                    <mxGeometry width="140" height="224" as="geometry"/>
                </mxCell>
                <mxCell id="144" value="Color" style="swimlane;fontStyle=0;childLayout=stackLayout;horizontal=1;startSize=26;fillColor=none;horizontalStack=0;resizeParent=1;resizeParentMax=0;resizeLast=0;collapsible=1;marginBottom=0;html=1;" parent="142" vertex="1">
                    <mxGeometry width="140" height="104" as="geometry"/>
                </mxCell>
                <mxCell id="172" value="id&amp;nbsp;&amp;nbsp;&lt;span style=&quot;white-space: pre;&quot;&gt;&#9;&lt;/span&gt;&lt;span style=&quot;white-space: pre;&quot;&gt;&#9;&lt;/span&gt;uuid" style="text;strokeColor=none;fillColor=none;align=left;verticalAlign=top;spacingLeft=4;spacingRight=4;overflow=hidden;rotatable=0;points=[[0,0.5],[1,0.5]];portConstraint=eastwest;whiteSpace=wrap;html=1;" parent="144" vertex="1">
                    <mxGeometry y="26" width="140" height="26" as="geometry"/>
                </mxCell>
                <mxCell id="174" value="storeId&lt;span style=&quot;white-space: pre;&quot;&gt;&#9;&lt;/span&gt;uuid" style="text;strokeColor=none;fillColor=none;align=left;verticalAlign=top;spacingLeft=4;spacingRight=4;overflow=hidden;rotatable=0;points=[[0,0.5],[1,0.5]];portConstraint=eastwest;whiteSpace=wrap;html=1;" parent="144" vertex="1">
                    <mxGeometry y="52" width="140" height="26" as="geometry"/>
                </mxCell>
                <mxCell id="173" value="name&lt;span style=&quot;white-space: pre;&quot;&gt;&#9;&lt;/span&gt;string" style="text;strokeColor=none;fillColor=none;align=left;verticalAlign=top;spacingLeft=4;spacingRight=4;overflow=hidden;rotatable=0;points=[[0,0.5],[1,0.5]];portConstraint=eastwest;whiteSpace=wrap;html=1;" parent="144" vertex="1">
                    <mxGeometry y="78" width="140" height="26" as="geometry"/>
                </mxCell>
                <mxCell id="147" value="&lt;br&gt;&lt;br&gt;&lt;span style=&quot;text-align: left;&quot;&gt;value&lt;/span&gt;&lt;span style=&quot;text-align: left;&quot;&gt;&#9;&lt;/span&gt;&lt;span style=&quot;text-align: left;&quot;&gt;number&lt;br&gt;&lt;/span&gt;create_at&lt;span style=&quot;&quot;&gt;&#9;&lt;span style=&quot;&quot;&gt;&#9;&lt;/span&gt;&lt;/span&gt;timestamp&lt;br&gt;update_at&lt;span style=&quot;&quot;&gt;&amp;nbsp;&lt;span style=&quot;&quot;&gt;&#9;&lt;/span&gt;&lt;/span&gt;timestamp" style="whiteSpace=wrap;html=1;" parent="142" vertex="1">
                    <mxGeometry y="104" width="140" height="102" as="geometry"/>
                </mxCell>
                <mxCell id="179" value="" style="group" parent="1" vertex="1" connectable="0">
                    <mxGeometry x="180" y="280" width="140" height="224" as="geometry"/>
                </mxCell>
                <mxCell id="180" value="" style="group" parent="179" vertex="1" connectable="0">
                    <mxGeometry width="140" height="224" as="geometry"/>
                </mxCell>
                <mxCell id="181" value="Size" style="swimlane;fontStyle=0;childLayout=stackLayout;horizontal=1;startSize=26;fillColor=none;horizontalStack=0;resizeParent=1;resizeParentMax=0;resizeLast=0;collapsible=1;marginBottom=0;html=1;" parent="180" vertex="1">
                    <mxGeometry width="140" height="104" as="geometry"/>
                </mxCell>
                <mxCell id="182" value="id&amp;nbsp;&amp;nbsp;&lt;span style=&quot;white-space: pre;&quot;&gt;&#9;&lt;/span&gt;&lt;span style=&quot;white-space: pre;&quot;&gt;&#9;&lt;/span&gt;uuid" style="text;strokeColor=none;fillColor=none;align=left;verticalAlign=top;spacingLeft=4;spacingRight=4;overflow=hidden;rotatable=0;points=[[0,0.5],[1,0.5]];portConstraint=eastwest;whiteSpace=wrap;html=1;" parent="181" vertex="1">
                    <mxGeometry y="26" width="140" height="26" as="geometry"/>
                </mxCell>
                <mxCell id="183" value="storeId&lt;span style=&quot;white-space: pre;&quot;&gt;&#9;&lt;/span&gt;uuid" style="text;strokeColor=none;fillColor=none;align=left;verticalAlign=top;spacingLeft=4;spacingRight=4;overflow=hidden;rotatable=0;points=[[0,0.5],[1,0.5]];portConstraint=eastwest;whiteSpace=wrap;html=1;" parent="181" vertex="1">
                    <mxGeometry y="52" width="140" height="26" as="geometry"/>
                </mxCell>
                <mxCell id="184" value="name&lt;span style=&quot;white-space: pre;&quot;&gt;&#9;&lt;/span&gt;string" style="text;strokeColor=none;fillColor=none;align=left;verticalAlign=top;spacingLeft=4;spacingRight=4;overflow=hidden;rotatable=0;points=[[0,0.5],[1,0.5]];portConstraint=eastwest;whiteSpace=wrap;html=1;" parent="181" vertex="1">
                    <mxGeometry y="78" width="140" height="26" as="geometry"/>
                </mxCell>
                <mxCell id="185" value="&lt;br&gt;&lt;br&gt;&lt;span style=&quot;text-align: left;&quot;&gt;value&lt;/span&gt;&lt;span style=&quot;text-align: left;&quot;&gt;&amp;nbsp;&lt;/span&gt;&lt;span style=&quot;text-align: left;&quot;&gt;number&lt;br&gt;&lt;/span&gt;create_at&amp;nbsp;timestamp&lt;br&gt;update_at&amp;nbsp;&amp;nbsp;timestamp" style="whiteSpace=wrap;html=1;" parent="180" vertex="1">
                    <mxGeometry y="104" width="140" height="102" as="geometry"/>
                </mxCell>
                <mxCell id="195" style="edgeStyle=none;html=1;entryX=0.5;entryY=0;entryDx=0;entryDy=0;" parent="1" source="185" target="124" edge="1">
                    <mxGeometry relative="1" as="geometry"/>
                </mxCell>
                <mxCell id="198" value="" style="group" parent="1" vertex="1" connectable="0">
                    <mxGeometry x="140" y="840" width="140" height="224" as="geometry"/>
                </mxCell>
                <mxCell id="199" value="" style="edgeStyle=none;html=1;" parent="198" edge="1">
                    <mxGeometry relative="1" as="geometry">
                        <mxPoint x="100" y="130" as="sourcePoint"/>
                        <mxPoint x="100" y="130" as="targetPoint"/>
                    </mxGeometry>
                </mxCell>
                <mxCell id="200" value="ImageProduct" style="swimlane;fontStyle=0;childLayout=stackLayout;horizontal=1;startSize=26;fillColor=none;horizontalStack=0;resizeParent=1;resizeParentMax=0;resizeLast=0;collapsible=1;marginBottom=0;html=1;" parent="198" vertex="1">
                    <mxGeometry width="140" height="140" as="geometry"/>
                </mxCell>
                <mxCell id="201" value="id&amp;nbsp;&amp;nbsp;&lt;span style=&quot;white-space: pre;&quot;&gt;&#9;&lt;/span&gt;&lt;span style=&quot;white-space: pre;&quot;&gt;&#9;&lt;/span&gt;uuid" style="text;strokeColor=none;fillColor=none;align=left;verticalAlign=top;spacingLeft=4;spacingRight=4;overflow=hidden;rotatable=0;points=[[0,0.5],[1,0.5]];portConstraint=eastwest;whiteSpace=wrap;html=1;" parent="200" vertex="1">
                    <mxGeometry y="26" width="140" height="26" as="geometry"/>
                </mxCell>
                <mxCell id="202" value="imageUrl&lt;span style=&quot;white-space: pre;&quot;&gt;&#9;&lt;/span&gt;&lt;span style=&quot;white-space: pre;&quot;&gt;&#9;&lt;/span&gt;string" style="text;strokeColor=none;fillColor=none;align=left;verticalAlign=top;spacingLeft=4;spacingRight=4;overflow=hidden;rotatable=0;points=[[0,0.5],[1,0.5]];portConstraint=eastwest;whiteSpace=wrap;html=1;" parent="200" vertex="1">
                    <mxGeometry y="52" width="140" height="26" as="geometry"/>
                </mxCell>
                <mxCell id="203" value="productId&lt;span style=&quot;white-space: pre;&quot;&gt;&#9;&lt;/span&gt;&lt;span style=&quot;white-space: pre;&quot;&gt;&#9;&lt;/span&gt;uuid&lt;br&gt;productVariant&lt;span style=&quot;white-space: pre;&quot;&gt;&#9;&lt;/span&gt;&lt;span style=&quot;white-space: pre;&quot;&gt;&#9;&lt;/span&gt;uuid&lt;br&gt;" style="text;strokeColor=none;fillColor=none;align=left;verticalAlign=top;spacingLeft=4;spacingRight=4;overflow=hidden;rotatable=0;points=[[0,0.5],[1,0.5]];portConstraint=eastwest;whiteSpace=wrap;html=1;" parent="200" vertex="1">
                    <mxGeometry y="78" width="140" height="62" as="geometry"/>
                </mxCell>
                <mxCell id="204" value="create_at&lt;span style=&quot;&quot;&gt;&#9;&lt;span style=&quot;white-space: pre;&quot;&gt;&#9;&lt;/span&gt;&lt;/span&gt;timestamp&lt;br&gt;update_at&lt;span style=&quot;&quot;&gt;&amp;nbsp;&lt;span style=&quot;white-space: pre;&quot;&gt;&#9;&lt;/span&gt;&lt;/span&gt;timestamp&lt;br&gt;" style="whiteSpace=wrap;html=1;" parent="198" vertex="1">
                    <mxGeometry y="140" width="140" height="60" as="geometry"/>
                </mxCell>
                <mxCell id="206" value="" style="edgeStyle=none;html=1;" parent="198" source="204" edge="1">
                    <mxGeometry relative="1" as="geometry">
                        <mxPoint x="70" y="163.99999999999955" as="targetPoint"/>
                    </mxGeometry>
                </mxCell>
                <mxCell id="207" style="edgeStyle=none;html=1;entryX=0.5;entryY=0;entryDx=0;entryDy=0;" parent="1" source="117" target="200" edge="1">
                    <mxGeometry relative="1" as="geometry"/>
                </mxCell>
                <mxCell id="210" style="edgeStyle=none;html=1;entryX=0;entryY=0.5;entryDx=0;entryDy=0;" parent="1" source="92" target="65" edge="1">
                    <mxGeometry relative="1" as="geometry"/>
                </mxCell>
                <mxCell id="211" style="edgeStyle=none;html=1;entryX=0.037;entryY=0.028;entryDx=0;entryDy=0;entryPerimeter=0;" parent="1" source="102" target="115" edge="1">
                    <mxGeometry relative="1" as="geometry"/>
                </mxCell>
                <mxCell id="212" style="edgeStyle=none;html=1;entryX=0.563;entryY=0.013;entryDx=0;entryDy=0;entryPerimeter=0;" parent="1" source="68" target="113" edge="1">
                    <mxGeometry relative="1" as="geometry"/>
                </mxCell>
                <mxCell id="225" style="edgeStyle=none;html=1;entryX=0.5;entryY=0;entryDx=0;entryDy=0;" parent="1" source="128" target="200" edge="1">
                    <mxGeometry relative="1" as="geometry"/>
                </mxCell>
                <mxCell id="128" value="create_at&lt;span style=&quot;&quot;&gt;&#9;&lt;span style=&quot;white-space: pre;&quot;&gt;&#9;&lt;/span&gt;&lt;/span&gt;timestamp&lt;br&gt;update_at&lt;span style=&quot;&quot;&gt;&amp;nbsp;&lt;span style=&quot;white-space: pre;&quot;&gt;&#9;&lt;/span&gt;&lt;/span&gt;timestamp&lt;br&gt;" style="whiteSpace=wrap;html=1;" parent="1" vertex="1">
                    <mxGeometry x="370" y="780" width="140" height="60" as="geometry"/>
                </mxCell>
                <mxCell id="130" value="" style="edgeStyle=none;html=1;" parent="1" source="128" target="129" edge="1">
                    <mxGeometry relative="1" as="geometry"/>
                </mxCell>
                <mxCell id="224" style="edgeStyle=none;html=1;entryX=0.5;entryY=-0.096;entryDx=0;entryDy=0;entryPerimeter=0;" parent="1" source="147" target="124" edge="1">
                    <mxGeometry relative="1" as="geometry"/>
                </mxCell>
                <mxCell id="226" value="" style="group" parent="1" vertex="1" connectable="0">
                    <mxGeometry x="640" y="540" width="140" height="224" as="geometry"/>
                </mxCell>
                <mxCell id="227" value="" style="group" parent="226" vertex="1" connectable="0">
                    <mxGeometry width="140" height="224" as="geometry"/>
                </mxCell>
                <mxCell id="228" value="order Item" style="swimlane;fontStyle=0;childLayout=stackLayout;horizontal=1;startSize=26;fillColor=none;horizontalStack=0;resizeParent=1;resizeParentMax=0;resizeLast=0;collapsible=1;marginBottom=0;html=1;" parent="227" vertex="1">
                    <mxGeometry width="140" height="104" as="geometry"/>
                </mxCell>
                <mxCell id="229" value="id&amp;nbsp;&amp;nbsp;&lt;span style=&quot;white-space: pre;&quot;&gt;&#9;&lt;/span&gt;&lt;span style=&quot;white-space: pre;&quot;&gt;&#9;&lt;/span&gt;uuid" style="text;strokeColor=none;fillColor=none;align=left;verticalAlign=top;spacingLeft=4;spacingRight=4;overflow=hidden;rotatable=0;points=[[0,0.5],[1,0.5]];portConstraint=eastwest;whiteSpace=wrap;html=1;" parent="228" vertex="1">
                    <mxGeometry y="26" width="140" height="26" as="geometry"/>
                </mxCell>
                <mxCell id="230" value="productId&amp;nbsp;&lt;span style=&quot;white-space: pre;&quot;&gt;&#9;&lt;/span&gt;uuid" style="text;strokeColor=none;fillColor=none;align=left;verticalAlign=top;spacingLeft=4;spacingRight=4;overflow=hidden;rotatable=0;points=[[0,0.5],[1,0.5]];portConstraint=eastwest;whiteSpace=wrap;html=1;" parent="228" vertex="1">
                    <mxGeometry y="52" width="140" height="26" as="geometry"/>
                </mxCell>
                <mxCell id="231" value="orderId&amp;nbsp;&lt;span style=&quot;white-space: pre;&quot;&gt;&#9;&lt;/span&gt;uuid&lt;br&gt;price" style="text;strokeColor=none;fillColor=none;align=left;verticalAlign=top;spacingLeft=4;spacingRight=4;overflow=hidden;rotatable=0;points=[[0,0.5],[1,0.5]];portConstraint=eastwest;whiteSpace=wrap;html=1;" parent="228" vertex="1">
                    <mxGeometry y="78" width="140" height="26" as="geometry"/>
                </mxCell>
                <mxCell id="233" value="" style="group" parent="1" vertex="1" connectable="0">
                    <mxGeometry x="870" y="540" width="140" height="224" as="geometry"/>
                </mxCell>
                <mxCell id="234" value="" style="group" parent="233" vertex="1" connectable="0">
                    <mxGeometry width="140" height="224" as="geometry"/>
                </mxCell>
                <mxCell id="235" value="order" style="swimlane;fontStyle=0;childLayout=stackLayout;horizontal=1;startSize=26;fillColor=none;horizontalStack=0;resizeParent=1;resizeParentMax=0;resizeLast=0;collapsible=1;marginBottom=0;html=1;" parent="234" vertex="1">
                    <mxGeometry width="140" height="104" as="geometry"/>
                </mxCell>
                <mxCell id="238" value="address&amp;nbsp;&lt;span style=&quot;white-space: pre;&quot;&gt;&#9;&lt;/span&gt;string&lt;br&gt;" style="text;strokeColor=none;fillColor=none;align=left;verticalAlign=top;spacingLeft=4;spacingRight=4;overflow=hidden;rotatable=0;points=[[0,0.5],[1,0.5]];portConstraint=eastwest;whiteSpace=wrap;html=1;" parent="235" vertex="1">
                    <mxGeometry y="26" width="140" height="26" as="geometry"/>
                </mxCell>
                <mxCell id="236" value="id&amp;nbsp;&amp;nbsp;&lt;span style=&quot;white-space: pre;&quot;&gt;&#9;&lt;/span&gt;&lt;span style=&quot;white-space: pre;&quot;&gt;&#9;&lt;/span&gt;uuid" style="text;strokeColor=none;fillColor=none;align=left;verticalAlign=top;spacingLeft=4;spacingRight=4;overflow=hidden;rotatable=0;points=[[0,0.5],[1,0.5]];portConstraint=eastwest;whiteSpace=wrap;html=1;" parent="235" vertex="1">
                    <mxGeometry y="52" width="140" height="26" as="geometry"/>
                </mxCell>
                <mxCell id="237" value="phone&amp;nbsp;&lt;span style=&quot;white-space: pre;&quot;&gt;&#9;&lt;/span&gt;number" style="text;strokeColor=none;fillColor=none;align=left;verticalAlign=top;spacingLeft=4;spacingRight=4;overflow=hidden;rotatable=0;points=[[0,0.5],[1,0.5]];portConstraint=eastwest;whiteSpace=wrap;html=1;" parent="235" vertex="1">
                    <mxGeometry y="78" width="140" height="26" as="geometry"/>
                </mxCell>
                <mxCell id="239" value="total &lt;span style=&quot;white-space: pre;&quot;&gt;&#9;&lt;/span&gt;number&lt;br&gt;productId &lt;span style=&quot;white-space: pre;&quot;&gt;&#9;&lt;/span&gt;uuid&lt;br&gt;userId&amp;nbsp;&lt;span style=&quot;white-space: pre;&quot;&gt;&#9;&lt;/span&gt;uuid&lt;br&gt;create_at&amp;nbsp;timestamp&lt;br&gt;update_at&amp;nbsp;&amp;nbsp;timestamp" style="whiteSpace=wrap;html=1;" parent="234" vertex="1">
                    <mxGeometry y="102" width="140" height="102" as="geometry"/>
                </mxCell>
                <mxCell id="240" style="edgeStyle=none;html=1;entryX=1;entryY=0.5;entryDx=0;entryDy=0;" parent="1" source="129" target="114" edge="1">
                    <mxGeometry relative="1" as="geometry"/>
                </mxCell>
                <mxCell id="241" style="edgeStyle=none;html=1;entryX=1;entryY=0.5;entryDx=0;entryDy=0;" parent="1" source="230" target="125" edge="1">
                    <mxGeometry relative="1" as="geometry"/>
                </mxCell>
                <mxCell id="242" style="edgeStyle=none;html=1;entryX=1;entryY=0.5;entryDx=0;entryDy=0;" parent="1" source="235" target="229" edge="1">
                    <mxGeometry relative="1" as="geometry"/>
                </mxCell>
                <mxCell id="247" style="edgeStyle=none;html=1;entryX=0.5;entryY=1;entryDx=0;entryDy=0;" parent="1" source="59" target="117" edge="1">
                    <mxGeometry relative="1" as="geometry"/>
                </mxCell>
            </root>
        </mxGraphModel>
    </diagram>
</mxfile>